 
<svg version="1.0" xmlns="http://www.w3.org/2000/svg"
 width="32" height="32" viewBox="0 0 500.000000 500.000000"
 preserveAspectRatio="xMidYMid meet">

<g transform="translate(0.000000,500.000000) scale(0.100000,-0.100000)"
fill="#000000" stroke="none">
<path d="M2325 3983 c-284 -60 -525 -277 -621 -558 -24 -70 -28 -99 -32 -231
-4 -131 -1 -162 17 -233 40 -155 112 -280 223 -388 l53 -52 0 97 c0 91 2 101
34 160 19 35 65 94 103 131 l69 69 -12 113 c-32 323 51 639 227 855 50 61 50
61 -61 37z"/>
<path d="M2446 3948 c-25 -29 -46 -56 -46 -60 0 -3 12 -16 26 -27 49 -39 164
-19 164 28 0 9 -22 38 -49 65 l-48 47 -47 -53z"/>
<path d="M2630 3919 c107 -144 176 -317 201 -506 7 -56 10 -152 6 -264 l-6
-176 56 -54 c112 -109 161 -223 149 -343 l-6 -61 61 64 c120 125 202 284 230
447 16 93 6 270 -21 364 -40 140 -135 298 -236 392 -59 54 -180 129 -257 159
-62 24 -201 59 -233 59 -2 0 23 -37 56 -81z"/>
<path d="M2429 3575 c-27 -14 -59 -69 -59 -99 0 -35 30 -85 59 -100 48 -25 95
-20 134 14 41 35 52 78 33 124 -28 68 -104 95 -167 61z"/>
<path d="M2830 2896 c0 -10 -12 -65 -26 -122 l-26 -104 32 -50 c41 -63 70
-157 70 -223 l0 -52 21 25 c11 14 35 54 52 90 29 58 32 74 32 155 0 75 -4 98
-24 139 -30 60 -130 170 -131 142z"/>
<path d="M2108 2852 c-87 -88 -120 -190 -98 -298 12 -57 52 -145 88 -191 17
-22 17 -21 19 40 3 74 31 160 72 221 l30 43 -28 112 c-15 61 -30 113 -33 116
-2 2 -25 -17 -50 -43z"/>
<path d="M2205 2557 c-20 -41 -39 -92 -42 -115 -5 -40 -4 -41 33 -57 52 -22
191 -55 231 -55 l32 0 -13 38 c-8 21 -19 65 -25 98 -7 32 -14 69 -16 81 -4 16
-15 23 -45 28 -22 4 -56 18 -75 31 -20 13 -38 24 -40 24 -2 0 -20 -33 -40 -73z"/>
<path d="M2730 2621 c0 -14 -35 -32 -89 -46 l-44 -11 -23 -99 c-12 -55 -26
-109 -30 -119 -7 -18 -4 -19 56 -12 63 7 217 51 233 66 13 12 -20 130 -51 179
-26 43 -52 64 -52 42z"/>
<path d="M1704 2020 c-43 -17 -54 -48 -54 -147 0 -81 3 -95 23 -118 19 -23 33
-28 90 -32 l67 -6 0 -58 0 -59 -40 0 c-39 0 -40 1 -40 35 l0 35 -50 0 -50 0 0
-49 c0 -38 6 -56 24 -78 23 -27 28 -28 116 -28 88 0 93 1 116 28 22 26 24 37
24 126 0 130 -10 144 -107 151 l-68 5 -3 58 -3 57 36 0 c31 0 35 -3 35 -25 0
-24 3 -25 55 -25 52 0 55 1 55 25 0 43 -27 94 -55 105 -32 12 -142 12 -171 0z"/>
<path d="M2434 2020 c-50 -20 -54 -38 -54 -277 l0 -223 55 0 55 0 0 85 0 85
35 0 35 0 0 -85 0 -85 55 0 55 0 0 228 c-1 238 -2 247 -47 270 -25 14 -158 15
-189 2z m126 -160 l0 -90 -35 0 -35 0 0 90 0 90 35 0 35 0 0 -90z"/>
<path d="M2824 2021 c-50 -21 -54 -41 -54 -253 0 -194 0 -197 24 -225 23 -27
28 -28 120 -28 120 0 137 12 144 105 l4 61 -53 -3 -54 -3 -3 -42 c-3 -42 -4
-43 -38 -43 l-34 0 0 180 0 180 35 0 c33 0 35 -2 35 -35 l0 -35 56 0 57 0 -5
51 c-8 78 -29 93 -131 96 -45 2 -92 -1 -103 -6z"/>
<path d="M2020 1770 l0 -250 55 0 55 0 0 100 0 100 59 0 c33 0 67 3 76 6 31
12 45 60 45 149 0 82 -1 88 -29 116 -29 29 -31 29 -145 29 l-116 0 0 -250z
m178 98 l3 -78 -36 0 -35 0 0 81 0 80 33 -3 32 -3 3 -77z"/>
<path d="M3140 1770 l0 -250 115 0 115 0 0 45 0 45 -60 0 -60 0 0 60 0 60 55
0 55 0 0 40 0 40 -55 0 -55 0 0 60 0 60 60 0 60 0 0 45 0 45 -115 0 -115 0 0
-250z"/>
</g>
</svg>